HIERARCHY
ROOT Hips
{
	OFFSET 0.000000 35.082581 0.000000
	CHANNELS 6 Xposition Yposition Zposition Xrotation Yrotation Zrotation 
	JOINT Spine
	{
		OFFSET 0.000000 6.876099 0.125700
		CHANNELS 3 Xrotation Yrotation Zrotation
		JOINT Spine1
		{
			OFFSET 0.000000 5.730043 0.104720
			CHANNELS 3 Xrotation Yrotation Zrotation
			JOINT Spine1_split
			{
				OFFSET 0.000000 5.730043 0.104720
				CHANNELS 3 Xrotation Yrotation Zrotation
				JOINT Spine2
				{
					OFFSET 0.000000 5.730043 0.104720
					CHANNELS 3 Xrotation Yrotation Zrotation
					JOINT Neck
					{
						OFFSET 0.000000 10.314075 0.188496
						CHANNELS 3 Xrotation Yrotation Zrotation
						JOINT Head
						{
							OFFSET 0.000000 7.643700 -2.377400
							CHANNELS 3 Xrotation Yrotation Zrotation
							JOINT HeadTop_End
							{
								OFFSET 0.000000 43.788605 -13.619600
								CHANNELS 3 Xrotation Yrotation Zrotation
								End Site
								{
									OFFSET 0.000000 0.000000 0.000000
								}
							}
						}
					}
					JOINT LeftShoulder
					{
						OFFSET 2.196100 4.412489 0.087492
						CHANNELS 3 Xrotation Yrotation Zrotation
						JOINT LeftShoulder_split
						{
							OFFSET 2.196100 4.412489 0.087492
							CHANNELS 3 Xrotation Yrotation Zrotation
							JOINT LeftArm
							{
								OFFSET 8.771219 -2.981674 -0.026999
								CHANNELS 3 Xrotation Yrotation Zrotation
								JOINT LeftForeArm
								{
									OFFSET 8.512804 0.000000 -0.000000
									CHANNELS 3 Xrotation Yrotation Zrotation
									JOINT LeftHand
									{
										OFFSET 18.484802 0.000000 -0.000000
										CHANNELS 3 Xrotation Yrotation Zrotation
										JOINT LeftHandThumb1
										{
											OFFSET 2.499420 -1.158070 2.653252
											CHANNELS 3 Xrotation Yrotation Zrotation
											JOINT LeftHandThumb2
											{
												OFFSET 2.370079 -1.368366 1.368366
												CHANNELS 3 Xrotation Yrotation Zrotation
												JOINT LeftHandThumb3
												{
													OFFSET 2.676727 -1.545410 1.545409
													CHANNELS 3 Xrotation Yrotation Zrotation
													JOINT LeftHandThumb4
													{
														OFFSET 1.692226 -0.977005 0.977007
														CHANNELS 3 Xrotation Yrotation Zrotation
														End Site
														{
															OFFSET 0.000000 0.000000 0.000000
														}
													}
												}
											}
										}
										JOINT LeftHandIndex1
										{
											OFFSET 7.924831 -0.457527 2.345128
											CHANNELS 3 Xrotation Yrotation Zrotation
											JOINT LeftHandIndex2
											{
												OFFSET 3.643303 0.000000 0.000000
												CHANNELS 3 Xrotation Yrotation Zrotation
												JOINT LeftHandIndex3
												{
													OFFSET 3.810799 0.000000 0.000000
													CHANNELS 3 Xrotation Yrotation Zrotation
													JOINT LeftHandIndex4
													{
														OFFSET 2.403702 0.000000 0.000000
														CHANNELS 3 Xrotation Yrotation Zrotation
														End Site
														{
															OFFSET 0.000000 0.000000 0.000000
														}
													}
												}
											}
										}
										JOINT LeftHandMiddle1
										{
											OFFSET 8.563995 0.000000 -0.000000
											CHANNELS 3 Xrotation Yrotation Zrotation
											JOINT LeftHandMiddle2
											{
												OFFSET 3.861618 0.000000 0.000000
												CHANNELS 3 Xrotation Yrotation Zrotation
												JOINT LeftHandMiddle3
												{
													OFFSET 3.701603 0.000000 0.000000
													CHANNELS 3 Xrotation Yrotation Zrotation
													JOINT LeftHandMiddle4
													{
														OFFSET 2.322544 0.000000 0.000000
														CHANNELS 3 Xrotation Yrotation Zrotation
														End Site
														{
															OFFSET 0.000000 0.000000 0.000000
														}
													}
												}
											}
										}
										JOINT LeftHandRing1
										{
											OFFSET 8.426460 -0.424637 -3.286992
											CHANNELS 3 Xrotation Yrotation Zrotation
											JOINT LeftHandRing2
											{
												OFFSET 3.126408 0.000000 0.000000
												CHANNELS 3 Xrotation Yrotation Zrotation
												JOINT LeftHandRing3
												{
													OFFSET 3.085026 0.000000 0.000000
													CHANNELS 3 Xrotation Yrotation Zrotation
													JOINT LeftHandRing4
													{
														OFFSET 1.644005 0.000000 0.000000
														CHANNELS 3 Xrotation Yrotation Zrotation
														End Site
														{
															OFFSET 0.000000 0.000000 0.000000
														}
													}
												}
											}
										}
									}
								}
							}
						}
					}
					JOINT RightShoulder
					{
						OFFSET -2.196100 4.412496 0.070690
						CHANNELS 3 Xrotation Yrotation Zrotation
						JOINT RightShoulder_split
						{
							OFFSET -2.196100 4.412496 0.070690
							CHANNELS 3 Xrotation Yrotation Zrotation
							JOINT RightArm
							{
								OFFSET -8.771282 -2.981682 -0.094208
								CHANNELS 3 Xrotation Yrotation Zrotation
								JOINT RightForeArm
								{
									OFFSET -8.494598 0.000000 0.000000
									CHANNELS 3 Xrotation Yrotation Zrotation
									JOINT RightHand
									{
										OFFSET -18.483803 0.000000 0.000001
										CHANNELS 3 Xrotation Yrotation Zrotation
										JOINT RightHandThumb1
										{
											OFFSET -2.527351 -1.008072 2.575253
											CHANNELS 3 Xrotation Yrotation Zrotation
											JOINT RightHandThumb2
											{
												OFFSET -2.321518 -1.340328 1.340329
												CHANNELS 3 Xrotation Yrotation Zrotation
												JOINT RightHandThumb3
												{
													OFFSET -2.657753 -1.534454 1.534455
													CHANNELS 3 Xrotation Yrotation Zrotation
													JOINT RightHandThumb4
													{
														OFFSET -1.807510 -1.043568 1.043567
														CHANNELS 3 Xrotation Yrotation Zrotation
														End Site
														{
															OFFSET 0.000000 0.000000 0.000000
														}
													}
												}
											}
										}
										JOINT RightHandIndex1
										{
											OFFSET -8.811420 0.015533 2.887987
											CHANNELS 3 Xrotation Yrotation Zrotation
											JOINT RightHandIndex2
											{
												OFFSET -3.537502 0.000000 0.000000
												CHANNELS 3 Xrotation Yrotation Zrotation
												JOINT RightHandIndex3
												{
													OFFSET -3.356201 0.000000 0.000000
													CHANNELS 3 Xrotation Yrotation Zrotation
													JOINT RightHandIndex4
													{
														OFFSET -1.933098 0.000000 0.000000
														CHANNELS 3 Xrotation Yrotation Zrotation
														End Site
														{
															OFFSET 0.000000 0.000000 0.000000
														}
													}
												}
											}
										}
										JOINT RightHandMiddle1
										{
											OFFSET -8.178135 0.000000 0.000000
											CHANNELS 3 Xrotation Yrotation Zrotation
											JOINT RightHandMiddle2
											{
												OFFSET -3.901302 0.000000 0.000000
												CHANNELS 3 Xrotation Yrotation Zrotation
												JOINT RightHandMiddle3
												{
													OFFSET -3.909599 0.000000 0.000000
													CHANNELS 3 Xrotation Yrotation Zrotation
													JOINT RightHandMiddle4
													{
														OFFSET -2.376003 0.000000 0.000000
														CHANNELS 3 Xrotation Yrotation Zrotation
														End Site
														{
															OFFSET 0.000000 0.000000 0.000000
														}
													}
												}
											}
										}
										JOINT RightHandRing1
										{
											OFFSET -7.559013 0.014137 -2.865403
											CHANNELS 3 Xrotation Yrotation Zrotation
											JOINT RightHandRing2
											{
												OFFSET -3.449306 0.000000 0.000000
												CHANNELS 3 Xrotation Yrotation Zrotation
												JOINT RightHandRing3
												{
													OFFSET -3.362106 0.000000 0.000000
													CHANNELS 3 Xrotation Yrotation Zrotation
													JOINT RightHandRing4
													{
														OFFSET -2.076401 0.000000 0.000000
														CHANNELS 3 Xrotation Yrotation Zrotation
														End Site
														{
															OFFSET 0.000000 0.000000 0.000000
														}
													}
												}
											}
										}
									}
								}
							}
						}
					}
				}
			}
		}
	}
	JOINT LeftUpLeg
	{
		OFFSET 10.205400 -3.823500 0.155100
		CHANNELS 3 Xrotation Yrotation Zrotation
		JOINT LeftLeg
		{
			OFFSET 0.708757 -12.982077 0.567790
			CHANNELS 3 Xrotation Yrotation Zrotation
			JOINT LeftFoot
			{
				OFFSET -0.708756 -10.717838 -2.184338
				CHANNELS 3 Xrotation Yrotation Zrotation
				JOINT LeftToeBase
				{
					OFFSET 0.108149 -7.191104 7.560241
					CHANNELS 3 Xrotation Yrotation Zrotation
					JOINT LeftToe_End
					{
						OFFSET 0.070230 0.081724 4.490308
						CHANNELS 3 Xrotation Yrotation Zrotation
						End Site
						{
							OFFSET 0.000000 0.000000 0.000000
						}
					}
				}
			}
		}
	}
	JOINT RightUpLeg
	{
		OFFSET -10.205400 -3.823500 0.005500
		CHANNELS 3 Xrotation Yrotation Zrotation
		JOINT RightLeg
		{
			OFFSET -0.708756 -12.982134 0.610632
			CHANNELS 3 Xrotation Yrotation Zrotation
			JOINT RightFoot
			{
				OFFSET 0.708754 -10.717769 -1.945823
				CHANNELS 3 Xrotation Yrotation Zrotation
				JOINT RightToeBase
				{
					OFFSET -0.108140 -7.191069 7.372968
					CHANNELS 3 Xrotation Yrotation Zrotation
					JOINT RightToe_End
					{
						OFFSET -0.070227 0.081735 4.479403
						CHANNELS 3 Xrotation Yrotation Zrotation
						End Site
						{
							OFFSET 0.000000 0.000000 0.000000
						}
					}
				}
			}
		}
	}
}
MOTION
Frames: 4
Frame Time: 0.016667
-1.986590 26.780792 12.627730 5.167189 -410.025518 7.561603 11.708184 -7.798486 5.013223 7.182697 -7.370592 1.871818 0.000000 0.000000 0.000000 -3.934140 -6.959415 2.025280 7.764877 41.421525 -11.305566 0.258111 26.018807 -6.977975 0.000002 -0.000000 0.000001 1.383210 -5.637217 -0.733903 0.000000 0.000000 0.000000 -2.266018 -2.878844 -36.679478 -0.000819 -20.848222 -3.050618 -46.535534 -14.688318 25.139531 20.995602 -10.306040 6.187777 3.717706 17.385536 -9.270244 11.901758 19.029122 -1.676423 -0.000003 -0.000003 -0.000002 12.155538 -5.009008 -19.357548 -1.752633 1.408445 -24.867469 -1.756613 1.242291 -27.840674 0.000000 0.000002 0.000000 2.495167 2.549568 -39.192008 -1.398714 0.248734 -47.542942 -1.203674 -0.020759 -51.118017 0.000002 0.000001 -0.000001 0.949964 6.178090 -48.371693 -2.316276 1.003918 -53.554612 -2.280347 0.916080 -56.721651 0.000001 -0.000001 0.000000 9.987227 -5.269210 3.687214 0.000000 0.000000 0.000000 4.872917 -1.636409 76.375503 -10.545817 13.289813 4.346982 -27.527570 -8.499057 -15.910803 55.149526 18.649545 -29.698298 -0.442548 -14.180560 7.313160 21.666999 -29.244486 9.142356 0.000005 -0.000003 0.000001 5.673399 7.585023 36.844137 1.050488 3.824523 68.900237 0.499577 3.026040 62.196461 -0.000000 -0.000000 0.000001 -0.125721 1.886088 45.000773 -1.168980 3.204683 68.417650 -0.936403 1.813604 41.107565 -0.000001 0.000001 -0.000000 -5.311999 1.216631 58.508794 -0.745194 1.667567 48.011285 -0.816437 1.840671 53.666538 -0.000000 -0.000000 -0.000001 21.250330 9.015879 -12.786275 39.024334 -10.034741 -7.751499 -48.473255 -12.300587 18.501324 -8.314753 -2.488661 1.644452 -0.000000 -0.000003 0.000000 -66.198637 -2.574929 6.577336 12.369235 3.112527 -3.228942 14.234229 7.539063 15.644101 2.549194 -5.172776 8.236897 0.000002 0.000001 -0.000001 
-1.512705 26.889473 12.010386 5.279910 -411.259514 7.147522 11.570208 -7.595078 5.029527 6.897513 -6.951606 1.878613 0.000000 0.000000 0.000000 -4.209831 -6.549554 2.113397 6.754096 41.480439 -10.680600 1.712228 25.842641 -7.475040 0.000000 -0.000000 0.000001 1.270522 -5.316230 -0.766559 0.000000 0.000000 0.000000 -4.829697 -2.597545 -36.315084 -0.000760 -23.380832 -2.655194 -43.580012 -16.603148 22.958409 20.993652 -10.305564 6.186549 3.715748 17.385333 -9.269075 11.901596 19.029254 -1.677039 -0.000002 -0.000002 -0.000006 12.155540 -5.009004 -19.357509 -1.752661 1.408476 -24.867517 -1.757473 1.242288 -27.840640 -0.000000 0.000001 -0.000000 2.495523 2.548933 -39.191919 -1.398865 0.248790 -47.542939 -1.202727 -0.020767 -51.118024 0.000003 0.000002 0.000000 0.950600 6.178147 -48.371731 -2.316292 1.003876 -53.554595 -2.280360 0.916091 -56.721651 -0.000001 -0.000000 0.000001 10.009435 -5.247003 3.894637 0.000000 0.000000 0.000000 5.281031 -0.456745 74.450346 -9.017200 16.459795 6.074810 -27.199907 -7.979323 -16.432204 55.149526 18.649541 -29.698287 -0.442549 -14.180563 7.313156 21.666999 -29.244486 9.142352 0.000004 0.000000 -0.000000 5.673400 7.585019 36.844137 1.050485 3.824526 68.900237 0.499574 3.026040 62.196461 0.000001 0.000002 0.000001 -0.125723 1.886082 45.000773 -1.168978 3.204679 68.417650 -0.936407 1.813605 41.107565 -0.000001 -0.000002 0.000004 -5.312000 1.216626 58.508787 -0.745201 1.667569 48.011288 -0.816439 1.840676 53.666535 -0.000001 -0.000001 -0.000003 22.349161 8.829731 -12.844938 35.013930 -9.563737 -7.507890 -50.897374 -11.504068 17.062987 -1.993133 -5.708590 1.904708 0.000000 0.000001 -0.000000 -65.748753 -3.649816 6.391853 12.053965 3.582681 -2.944186 17.045208 8.447136 16.572954 1.914797 -4.656046 7.675316 0.000000 -0.000001 -0.000001 
-0.992239 27.143188 11.356660 5.555517 -412.357781 7.351684 11.479805 -7.253302 5.027057 6.702437 -6.646075 1.735210 0.000000 0.000000 0.000000 -4.396958 -6.222375 2.032147 5.775675 41.621137 -10.698918 2.687456 25.531737 -7.780066 -0.000000 0.000000 0.000001 1.193823 -5.438124 -0.666419 0.000000 0.000000 0.000000 -7.183538 -1.982261 -36.296178 -0.000745 -25.615151 -2.431723 -40.197190 -19.135379 21.319314 20.991782 -10.305266 6.185340 3.713716 17.384933 -9.267944 11.901408 19.029366 -1.677470 -0.000003 -0.000000 0.000003 12.155569 -5.008989 -19.357550 -1.752648 1.408488 -24.867486 -1.758023 1.242308 -27.840602 -0.000000 -0.000002 0.000000 2.495723 2.548435 -39.191871 -1.399380 0.248751 -47.542932 -1.202158 -0.020751 -51.118068 -0.000001 0.000001 -0.000001 0.951307 6.178131 -48.371823 -2.316281 1.003926 -53.554619 -2.280369 0.916072 -56.721617 0.000001 0.000001 -0.000001 10.002477 -5.247353 3.791882 0.000000 0.000000 0.000000 5.106700 1.244172 72.693963 -7.342018 18.797406 7.476830 -27.297773 -7.313772 -16.910835 55.149526 18.649543 -29.698287 -0.442550 -14.180560 7.313159 21.666994 -29.244479 9.142355 0.000003 -0.000002 -0.000002 5.673401 7.585017 36.844137 1.050483 3.824524 68.900237 0.499575 3.026039 62.196461 0.000000 0.000000 0.000000 -0.125717 1.886084 45.000776 -1.168978 3.204681 68.417650 -0.936405 1.813602 41.107565 0.000000 0.000002 -0.000002 -5.311995 1.216629 58.508794 -0.745203 1.667568 48.011288 -0.816439 1.840678 53.666535 0.000001 0.000002 -0.000001 22.202642 8.531599 -13.185515 32.098563 -8.682998 -7.240228 -51.767616 -10.145043 15.286930 1.896413 -8.833955 1.864015 0.000001 -0.000003 0.000000 -65.139685 -3.262195 6.063625 11.553752 3.649324 -2.823869 20.895584 9.158851 16.003514 3.273124 -3.936430 7.365150 0.000000 0.000004 -0.000001 
-0.532004 27.398540 10.751818 5.854090 -413.142570 7.760193 11.445725 -6.917801 4.986916 6.628102 -6.390911 1.563482 0.000000 0.000000 0.000000 -4.464400 -5.939063 1.913259 4.365869 41.687448 -10.666469 3.702049 25.152691 -8.050835 -0.000000 0.000000 -0.000000 1.126224 -5.641837 -0.723021 0.000000 0.000000 0.000000 -9.346834 -1.665551 -36.045319 -0.000775 -28.424336 -2.537054 -36.837314 -19.810986 22.805336 20.990331 -10.305130 6.184471 3.711900 17.384474 -9.266736 11.901362 19.029418 -1.677638 -0.000003 0.000001 -0.000002 12.155592 -5.008963 -19.357494 -1.752645 1.408422 -24.867510 -1.758210 1.242312 -27.840594 -0.000000 -0.000001 0.000000 2.495625 2.548051 -39.191851 -1.400275 0.248787 -47.542911 -1.202026 -0.020789 -51.118099 0.000002 0.000000 0.000000 0.951973 6.178115 -48.371960 -2.316344 1.003925 -53.554625 -2.280362 0.916066 -56.721624 -0.000001 -0.000000 -0.000000 10.045364 -5.469095 3.772929 0.000000 0.000000 0.000000 4.495817 3.336468 70.727640 -5.588862 20.793990 8.779309 -27.367683 -6.389273 -16.786221 55.149526 18.649546 -29.698287 -0.442547 -14.180561 7.313157 21.666989 -29.244486 9.142349 0.000001 -0.000002 -0.000000 5.673398 7.585020 36.844137 1.050484 3.824523 68.900237 0.499575 3.026038 62.196461 0.000000 -0.000000 -0.000001 -0.125721 1.886084 45.000776 -1.168975 3.204680 68.417657 -0.936404 1.813599 41.107565 0.000000 -0.000003 -0.000002 -5.312000 1.216627 58.508794 -0.745200 1.667567 48.011288 -0.816438 1.840674 53.666538 -0.000000 0.000000 -0.000002 21.329166 7.846338 -13.355404 30.165483 -8.110003 -6.766792 -52.379013 -8.635246 13.116830 5.249325 -11.123830 3.177318 -0.000000 -0.000007 0.000001 -65.362233 -1.994460 4.938442 12.840284 3.427239 -2.152464 24.494052 9.760722 16.220581 3.856194 -3.668820 7.269759 -0.000002 0.000000 0.000002 
